<svg xmlns="http://www.w3.org/2000/svg" xmlns:xlink="http://www.w3.org/1999/xlink" width="50.551" height="33.698" viewBox="0 0 50.551 33.698">
  <defs>
    <linearGradient id="linear-gradient" x1="0.5" x2="0.5" y2="1" gradientUnits="objectBoundingBox">
      <stop offset="0" stop-color="#0cd5f9"/>
      <stop offset="1" stop-color="#066b7d"/>
    </linearGradient>
  </defs>
  <path id="water" d="M49.34,32.579a10.138,10.138,0,0,1-5.082-2.01,3.4,3.4,0,0,0-4.231,0c-3.327,2.668-9.41,2.668-12.789-.132a3.258,3.258,0,0,0-4.1.158,11,11,0,0,1-12.745-.149,3.309,3.309,0,0,0-4.134.176,9.953,9.953,0,0,1-5.065,1.966A1.363,1.363,0,0,0,0,33.966v2.826a1.385,1.385,0,0,0,1.466,1.4,15.776,15.776,0,0,0,6.97-2.273,16.83,16.83,0,0,0,16.853,0,16.83,16.83,0,0,0,16.853,0,16.227,16.227,0,0,0,6.943,2.265,1.385,1.385,0,0,0,1.466-1.4V34.01a1.409,1.409,0,0,0-1.211-1.431Zm0-12.64a10.138,10.138,0,0,1-5.082-2.01,3.4,3.4,0,0,0-4.231,0C36.7,20.6,30.617,20.6,27.237,17.8a3.258,3.258,0,0,0-4.1.158,11,11,0,0,1-12.745-.149,3.309,3.309,0,0,0-4.134.176,9.953,9.953,0,0,1-5.065,1.966A1.363,1.363,0,0,0,0,21.326v2.826a1.385,1.385,0,0,0,1.466,1.4,15.776,15.776,0,0,0,6.97-2.273,16.83,16.83,0,0,0,16.853,0,16.83,16.83,0,0,0,16.853,0,16.227,16.227,0,0,0,6.943,2.265,1.385,1.385,0,0,0,1.466-1.4V21.37a1.409,1.409,0,0,0-1.211-1.431Zm0-12.64a10.218,10.218,0,0,1-5.082-2.01,3.4,3.4,0,0,0-4.231,0c-3.327,2.668-9.41,2.668-12.789-.132a3.258,3.258,0,0,0-4.1.158,11,11,0,0,1-12.745-.149,3.309,3.309,0,0,0-4.134.176A9.953,9.953,0,0,1,1.194,7.308,1.363,1.363,0,0,0,0,8.686v2.826a1.385,1.385,0,0,0,1.466,1.4,15.776,15.776,0,0,0,6.97-2.273,16.83,16.83,0,0,0,16.853,0,16.83,16.83,0,0,0,16.853,0,16.227,16.227,0,0,0,6.943,2.265,1.385,1.385,0,0,0,1.466-1.4V8.73A1.409,1.409,0,0,0,49.34,7.3Z" transform="translate(0 -4.503)" fill="url(#linear-gradient)"/>
</svg>
